<!DOCTYPE svg PUBLIC "-//W3C//DTD SVG 20010904//EN" "http://www.w3.org/TR/2001/REC-SVG-20010904/DTD/svg10.dtd">
<svg version="1.0" xmlns="http://www.w3.org/2000/svg" width="637px" height="903px" viewBox="0 0 6370 9030" preserveAspectRatio="xMidYMid meet">
<g id="layer101" fill="#010100" stroke="none">
 <path d="M1490 8892 l0 -138 113 -47 c847 -351 1625 -565 2537 -697 110 -16 326 -39 510 -55 211 -19 907 -30 1143 -18 l167 8 0 -3212 0 -3212 68 5 c37 3 103 9 147 14 44 5 106 12 138 15 l57 6 0 3535 c0 2673 -3 3534 -12 3534 -6 0 -35 18 -64 40 -58 44 -72 46 -182 30 -144 -20 -479 -55 -672 -70 -1372 -106 -2605 9 -3733 349 -92 28 -179 51 -192 51 l-25 0 0 -138z"/>
 <path d="M1492 8453 l3 -77 60 -34 c134 -77 572 -294 760 -377 429 -189 940 -372 1315 -471 52 -14 127 -34 165 -44 252 -67 625 -139 985 -189 80 -11 349 -37 490 -47 l85 -5 -3 -3215 -2 -3214 205 0 205 0 0 3475 0 3475 -397 0 c-448 0 -852 24 -1188 70 -438 60 -623 94 -996 180 -514 119 -1129 318 -1589 514 -46 20 -88 36 -93 36 -4 0 -7 -35 -5 -77z"/>
 <path d="M1410 4692 l1 -3497 157 -85 c667 -359 1280 -613 1941 -805 535 -154 1013 -245 1584 -300 l57 -5 0 3509 0 3509 -37 6 c-21 3 -69 8 -108 11 -335 28 -824 112 -1210 208 -316 79 -785 223 -1010 312 -33 13 -112 44 -175 68 -325 126 -719 310 -1077 501 l-123 66 0 -3498z"/>
 <path d="M752 8170 c-18 -4 -35 -9 -37 -12 -2 -2 1 -23 7 -47 10 -41 12 -43 42 -37 17 4 77 9 134 13 83 5 111 2 147 -12 69 -26 95 -92 58 -145 -25 -37 -38 -45 -164 -110 -166 -84 -198 -115 -214 -206 -14 -86 37 -178 120 -215 31 -15 65 -19 156 -19 142 0 178 6 173 29 -1 9 -5 32 -9 52 l-5 36 -52 -14 c-65 -16 -198 -17 -233 -1 -29 13 -55 55 -55 87 0 39 52 82 157 131 138 65 187 102 218 164 63 126 6 261 -127 301 -55 16 -255 20 -316 5z"/>
 <path d="M793 6972 l-103 -3 0 -385 0 -386 178 4 177 3 67 33 c104 51 159 128 180 250 21 123 -21 272 -105 368 -80 91 -184 122 -394 116z m243 -110 c134 -69 189 -274 115 -421 -51 -98 -130 -143 -268 -149 l-93 -4 0 134 c0 74 3 210 7 303 l6 167 96 -4 c73 -3 106 -9 137 -26z"/>
 <path d="M668 5385 l2 -385 59 0 c53 0 60 3 76 28 10 15 77 112 148 216 72 104 150 222 172 262 l42 74 -4 -193 c-2 -105 -5 -236 -7 -289 l-3 -98 51 0 51 0 1 385 1 385 -41 -1 -41 0 -168 -242 c-92 -133 -185 -271 -207 -307 l-40 -65 6 308 7 307 -54 0 -54 0 3 -385z"/>
 <path d="M590 4560 c0 -14 41 -116 168 -416 61 -143 116 -279 123 -302 l12 -42 73 0 c67 0 73 2 79 23 4 12 67 173 140 357 74 184 137 347 141 363 l6 27 -71 0 c-67 0 -71 -1 -71 -22 -1 -13 -15 -68 -33 -123 l-33 -100 -166 -3 -167 -2 -35 110 c-20 60 -36 116 -36 125 0 12 -14 15 -65 15 -36 0 -65 -4 -65 -10z m500 -322 c-1 -7 -128 -329 -131 -333 -3 -2 -34 69 -69 158 -36 89 -66 165 -68 170 -2 4 57 7 132 7 75 0 136 -1 136 -2z"/>
 <path d="M910 3153 c1 -120 1 -275 1 -345 l-1 -128 -120 0 -120 0 0 -40 0 -40 295 0 295 0 0 40 0 40 -120 0 -121 0 3 345 3 345 -58 0 -59 0 2 -217z"/>
 <path d="M835 2179 c-102 -8 -127 -16 -121 -37 3 -9 8 -30 12 -45 6 -26 10 -28 38 -23 17 4 77 9 134 13 83 5 111 2 147 -12 69 -26 95 -92 58 -145 -25 -37 -38 -45 -164 -110 -166 -84 -198 -115 -214 -206 -14 -86 37 -178 120 -215 31 -15 65 -19 156 -19 142 0 178 6 173 29 -1 9 -5 32 -9 52 l-5 36 -52 -14 c-65 -16 -198 -17 -233 -1 -29 13 -55 55 -55 87 0 39 52 82 157 131 138 65 187 102 218 164 43 85 27 195 -36 253 -56 51 -171 73 -324 62z"/>
 </g>
<g id="layer102" fill="#f00540" stroke="none">
 <path d="M1490 8892 l0 -138 113 -47 c847 -351 1625 -565 2537 -697 110 -16 326 -39 510 -55 211 -19 907 -30 1143 -18 l167 8 0 -3212 0 -3212 68 5 c37 3 103 9 147 14 44 5 106 12 138 15 l57 6 0 3535 c0 2673 -3 3534 -12 3534 -6 0 -35 18 -64 40 -58 44 -72 46 -182 30 -144 -20 -479 -55 -672 -70 -1372 -106 -2605 9 -3733 349 -92 28 -179 51 -192 51 l-25 0 0 -138z"/>
 <path d="M1492 8453 l3 -77 60 -34 c134 -77 572 -294 760 -377 429 -189 940 -372 1315 -471 52 -14 127 -34 165 -44 252 -67 625 -139 985 -189 80 -11 349 -37 490 -47 l85 -5 -3 -3215 -2 -3214 205 0 205 0 0 3475 0 3475 -397 0 c-448 0 -852 24 -1188 70 -438 60 -623 94 -996 180 -514 119 -1129 318 -1589 514 -46 20 -88 36 -93 36 -4 0 -7 -35 -5 -77z"/>
 <path d="M1410 4692 l1 -3497 157 -85 c667 -359 1280 -613 1941 -805 535 -154 1013 -245 1584 -300 l57 -5 0 3509 0 3509 -37 6 c-21 3 -69 8 -108 11 -335 28 -824 112 -1210 208 -316 79 -785 223 -1010 312 -33 13 -112 44 -175 68 -325 126 -719 310 -1077 501 l-123 66 0 -3498z"/>
 </g>
<g id="layer103" fill="#cb04b2" stroke="none">
 <path d="M1490 8892 l0 -138 113 -47 c847 -351 1625 -565 2537 -697 110 -16 326 -39 510 -55 211 -19 907 -30 1143 -18 l167 8 0 -3212 0 -3212 68 5 c37 3 103 9 147 14 44 5 106 12 138 15 l57 6 0 3535 c0 2673 -3 3534 -12 3534 -6 0 -35 18 -64 40 -58 44 -72 46 -182 30 -144 -20 -479 -55 -672 -70 -1372 -106 -2605 9 -3733 349 -92 28 -179 51 -192 51 l-25 0 0 -138z"/>
 <path d="M1410 4692 l1 -3497 157 -85 c667 -359 1280 -613 1941 -805 535 -154 1013 -245 1584 -300 l57 -5 0 3509 0 3509 -37 6 c-21 3 -69 8 -108 11 -335 28 -824 112 -1210 208 -316 79 -785 223 -1010 312 -33 13 -112 44 -175 68 -325 126 -719 310 -1077 501 l-123 66 0 -3498z"/>
 </g>
<g id="layer104" fill="#c7f805" stroke="none">
 <path d="M1490 8892 l0 -138 113 -47 c847 -351 1625 -565 2537 -697 110 -16 326 -39 510 -55 211 -19 907 -30 1143 -18 l167 8 0 -3212 0 -3212 68 5 c37 3 103 9 147 14 44 5 106 12 138 15 l57 6 0 3535 c0 2673 -3 3534 -12 3534 -6 0 -35 18 -64 40 -58 44 -72 46 -182 30 -144 -20 -479 -55 -672 -70 -1372 -106 -2605 9 -3733 349 -92 28 -179 51 -192 51 l-25 0 0 -138z"/>
 </g>

</svg>