<!DOCTYPE svg PUBLIC "-//W3C//DTD SVG 20010904//EN" "http://www.w3.org/TR/2001/REC-SVG-20010904/DTD/svg10.dtd">
<svg version="1.0" xmlns="http://www.w3.org/2000/svg" width="1600px" height="502px" viewBox="0 0 16000 5020" preserveAspectRatio="xMidYMid meet">
<g id="layer101" fill="#f00540" stroke="none">
 <path d="M830 4941 l0 -79 68 -27 c37 -15 76 -31 86 -37 20 -11 36 -17 271 -98 224 -78 388 -124 630 -176 183 -40 202 -43 320 -60 278 -40 341 -45 718 -50 l387 -6 0 -1785 0 -1785 28 6 c15 2 66 8 115 11 l87 7 0 1968 0 1968 -36 23 -36 22 -232 -23 c-367 -35 -530 -42 -861 -37 -300 6 -664 36 -805 67 -25 5 -92 19 -150 30 -150 28 -292 59 -315 70 -11 5 -36 12 -55 16 -19 3 -66 17 -105 30 -38 13 -80 24 -92 24 -22 0 -23 -4 -23 -79z"/>
 <path d="M832 4695 l3 -47 110 -58 c96 -51 213 -107 400 -191 74 -33 284 -115 330 -128 22 -7 49 -16 60 -21 11 -5 45 -16 75 -25 30 -9 64 -20 75 -25 20 -9 94 -29 290 -77 55 -14 150 -33 210 -44 61 -10 130 -23 155 -29 55 -12 322 -40 385 -40 l45 0 0 -1790 0 -1790 120 0 120 0 0 1935 0 1935 -212 0 c-205 0 -552 20 -688 40 -374 53 -713 131 -1005 229 -212 71 -298 103 -381 141 -23 11 -54 22 -68 26 -27 6 -27 6 -24 -41z"/>
 <path d="M780 2609 l0 -1950 33 -15 c17 -8 59 -30 92 -47 33 -18 83 -45 110 -59 76 -40 302 -148 312 -148 4 -1 26 -9 48 -20 22 -11 43 -19 47 -20 4 0 31 -11 60 -24 29 -13 73 -30 98 -37 25 -7 50 -16 55 -19 6 -4 35 -15 65 -24 30 -10 64 -22 75 -26 19 -9 73 -25 260 -77 128 -35 291 -70 430 -93 66 -11 145 -24 175 -29 30 -6 94 -13 143 -17 l87 -7 0 1956 0 1955 -82 7 c-232 19 -548 76 -778 141 -156 43 -405 123 -465 149 -16 7 -68 28 -115 46 -47 17 -107 42 -135 55 -27 12 -72 32 -100 44 -54 24 -238 115 -347 173 l-68 36 0 -1950z"/>
 <path d="M4550 3433 c-79 -6 -182 -23 -273 -45 -81 -19 -88 -23 -83 -42 4 -11 18 -72 31 -135 14 -63 28 -117 30 -119 3 -3 24 2 47 11 70 26 237 65 328 76 251 32 514 -7 631 -93 120 -88 143 -253 54 -392 -63 -98 -125 -136 -625 -378 -58 -27 -116 -58 -130 -67 -116 -75 -149 -101 -196 -152 -166 -179 -188 -474 -50 -686 81 -126 249 -227 430 -260 74 -14 472 -14 586 -1 47 5 106 15 133 22 41 10 47 15 47 38 0 23 -23 179 -35 236 -4 20 -5 20 -113 -7 -145 -37 -247 -49 -424 -49 -162 0 -229 10 -301 47 -65 32 -102 70 -127 127 -47 110 -11 241 88 325 43 35 280 157 392 201 76 30 269 131 340 179 183 122 272 250 306 439 18 102 12 189 -22 310 -64 229 -286 374 -626 411 -90 10 -331 12 -438 4z"/>
 <path d="M14745 3433 c-71 -6 -199 -24 -235 -34 -19 -5 -55 -14 -79 -20 l-44 -10 7 -47 c6 -46 47 -223 52 -231 2 -2 23 3 46 12 194 72 478 104 685 77 234 -32 364 -126 379 -278 8 -77 -7 -139 -51 -208 -62 -97 -144 -147 -605 -368 -94 -45 -198 -104 -218 -123 -7 -7 -17 -13 -22 -13 -20 0 -132 -116 -164 -168 -57 -95 -80 -181 -80 -302 1 -87 5 -118 28 -182 59 -170 180 -287 366 -353 105 -38 171 -45 404 -45 224 0 351 9 439 32 l49 12 -7 74 c-4 40 -11 88 -16 105 -5 18 -9 44 -9 60 0 15 -6 30 -13 33 -8 3 -60 -6 -116 -20 -56 -14 -139 -30 -184 -36 -104 -13 -368 -13 -427 1 -110 24 -206 94 -232 168 -21 60 -15 169 11 220 41 80 99 124 274 209 89 43 178 85 197 92 74 29 268 131 340 179 183 122 272 250 306 439 18 102 12 189 -22 310 -64 229 -286 374 -626 411 -89 10 -336 12 -433 4z"/>
 <path d="M12540 3398 c-96 -5 -190 -11 -208 -14 l-32 -5 7 -127 c10 -166 10 -1833 0 -1979 l-7 -113 386 0 c424 0 534 10 709 67 159 51 316 150 404 256 20 23 38 44 41 47 30 29 98 146 144 250 9 19 28 85 42 145 37 150 39 375 5 537 -53 255 -163 462 -335 633 -101 99 -109 106 -181 152 -172 108 -403 164 -665 161 -74 -1 -214 -5 -310 -10z m547 -243 c124 -28 157 -39 232 -77 445 -229 576 -950 248 -1363 -118 -149 -247 -229 -452 -282 -80 -21 -132 -27 -262 -30 -90 -3 -187 -2 -216 1 l-53 7 3 287 c4 433 23 1361 29 1408 5 39 6 41 52 51 76 17 340 15 419 -2z"/>
 <path d="M6534 3358 c10 -33 20 -1787 11 -1882 l-7 -79 -271 7 c-150 3 -309 9 -354 13 l-82 6 5 -94 c3 -52 7 -109 10 -126 l5 -33 845 0 845 0 -3 123 c-2 76 -7 121 -13 120 -6 -1 -163 -5 -349 -9 l-339 -7 5 991 5 992 -160 0 -159 0 6 -22z"/>
 <path d="M7520 3369 c0 -22 117 -330 166 -436 7 -17 14 -34 14 -37 0 -3 14 -35 30 -71 17 -36 30 -68 30 -71 0 -3 6 -20 14 -37 8 -18 42 -97 76 -177 58 -137 130 -303 171 -397 11 -23 19 -44 19 -47 0 -3 14 -35 30 -71 17 -36 30 -69 30 -73 1 -4 9 -25 20 -47 11 -22 19 -43 20 -48 0 -4 9 -26 19 -50 11 -23 38 -89 61 -147 23 -58 45 -114 50 -125 35 -77 120 -321 120 -345 0 -19 7 -20 205 -20 164 0 205 3 205 13 0 16 58 194 93 287 48 126 118 305 127 325 5 11 19 44 30 73 49 127 62 160 81 199 10 24 19 46 19 50 1 5 9 26 20 48 11 22 19 43 20 48 0 4 9 26 19 50 25 52 181 436 181 443 0 2 9 23 19 47 23 50 91 224 91 233 0 3 7 20 15 37 25 55 115 317 115 338 0 18 -8 19 -183 19 l-182 0 -13 -67 c-17 -94 -149 -512 -188 -601 l-15 -32 -486 2 -487 3 -65 195 c-79 233 -105 319 -128 423 l-18 77 -172 0 c-117 0 -173 -3 -173 -11z m1440 -939 c0 -11 -61 -170 -85 -225 -64 -140 -295 -765 -295 -796 0 -40 -16 -15 -42 65 -15 46 -41 121 -59 167 -29 75 -302 755 -316 787 -4 9 79 12 396 12 266 0 401 -3 401 -10z"/>
 <path d="M9963 3328 c4 -28 12 -293 18 -589 10 -424 10 -638 0 -1006 -7 -257 -15 -489 -18 -516 l-6 -47 169 0 169 0 14 31 c13 30 246 382 354 534 406 575 617 900 714 1100 l44 90 -7 -185 c-3 -102 -8 -192 -11 -200 -2 -8 -8 -296 -13 -640 -5 -344 -12 -649 -16 -678 l-7 -52 152 0 151 0 0 43 c0 23 -7 209 -15 412 -17 430 -19 743 -6 1080 6 132 13 338 16 458 l7 217 -123 -1 -124 0 -90 -136 c-49 -75 -137 -203 -195 -285 -58 -81 -152 -216 -210 -298 -58 -83 -111 -158 -118 -168 -36 -51 -122 -175 -157 -227 -22 -33 -43 -62 -46 -65 -5 -4 -98 -145 -214 -325 -55 -85 -121 -199 -156 -271 -30 -61 -34 -66 -37 -41 -2 15 2 67 8 115 6 48 15 359 20 692 5 333 12 696 16 808 l7 202 -148 0 -148 0 6 -52z"/>
 </g>
<g id="layer102" fill="#cb04b2" stroke="none">
 <path d="M830 4941 l0 -79 68 -27 c37 -15 76 -31 86 -37 20 -11 36 -17 271 -98 224 -78 388 -124 630 -176 183 -40 202 -43 320 -60 278 -40 341 -45 718 -50 l387 -6 0 -1785 0 -1785 28 6 c15 2 66 8 115 11 l87 7 0 1968 0 1968 -36 23 -36 22 -232 -23 c-367 -35 -530 -42 -861 -37 -300 6 -664 36 -805 67 -25 5 -92 19 -150 30 -150 28 -292 59 -315 70 -11 5 -36 12 -55 16 -19 3 -66 17 -105 30 -38 13 -80 24 -92 24 -22 0 -23 -4 -23 -79z"/>
 <path d="M780 2609 l0 -1950 33 -15 c17 -8 59 -30 92 -47 127 -69 164 -87 287 -146 69 -34 130 -61 135 -61 4 0 19 -6 33 -13 14 -7 48 -21 75 -31 28 -10 55 -22 60 -26 6 -4 37 -15 70 -25 33 -10 65 -21 70 -25 6 -4 35 -15 65 -24 30 -10 64 -22 75 -26 19 -9 73 -25 260 -77 128 -35 291 -70 430 -93 66 -11 145 -24 175 -29 30 -6 94 -13 143 -17 l87 -7 0 1956 0 1955 -82 7 c-247 20 -556 79 -843 159 -103 28 -355 111 -400 131 -16 7 -68 28 -115 46 -47 17 -107 42 -135 55 -27 12 -72 32 -100 44 -54 24 -238 115 -347 173 l-68 36 0 -1950z"/>
 <path d="M4550 3433 c-79 -6 -182 -23 -273 -45 -81 -19 -88 -23 -83 -42 4 -11 18 -72 31 -135 14 -63 28 -117 30 -119 3 -3 24 2 47 11 70 26 237 65 328 76 251 32 514 -7 631 -93 120 -88 143 -253 54 -392 -63 -98 -125 -136 -625 -378 -58 -27 -116 -58 -130 -67 -116 -75 -149 -101 -196 -152 -166 -179 -188 -474 -50 -686 81 -126 249 -227 430 -260 74 -14 472 -14 586 -1 47 5 106 15 133 22 41 10 47 15 47 38 0 23 -23 179 -35 236 -4 20 -5 20 -113 -7 -145 -37 -247 -49 -424 -49 -162 0 -229 10 -301 47 -65 32 -102 70 -127 127 -47 110 -11 241 88 325 43 35 280 157 392 201 76 30 269 131 340 179 183 122 272 250 306 439 18 102 12 189 -22 310 -64 229 -286 374 -626 411 -90 10 -331 12 -438 4z"/>
 <path d="M14745 3433 c-71 -6 -199 -24 -235 -34 -19 -5 -55 -14 -79 -20 l-44 -10 7 -47 c6 -46 47 -223 52 -231 2 -2 23 3 46 12 194 72 478 104 685 77 234 -32 364 -126 379 -278 8 -77 -7 -139 -51 -208 -62 -97 -144 -147 -605 -368 -94 -45 -198 -104 -218 -123 -7 -7 -17 -13 -22 -13 -20 0 -132 -116 -164 -168 -57 -95 -80 -181 -80 -302 1 -87 5 -118 28 -182 59 -170 180 -287 366 -353 105 -38 171 -45 404 -45 224 0 351 9 439 32 l49 12 -7 74 c-4 40 -11 88 -16 105 -5 18 -9 44 -9 60 0 15 -6 30 -13 33 -8 3 -60 -6 -116 -20 -56 -14 -139 -30 -184 -36 -104 -13 -368 -13 -427 1 -110 24 -206 94 -232 168 -21 60 -15 169 11 220 41 80 99 124 274 209 89 43 178 85 197 92 74 29 268 131 340 179 183 122 272 250 306 439 18 102 12 189 -22 310 -64 229 -286 374 -626 411 -89 10 -336 12 -433 4z"/>
 <path d="M12540 3398 c-96 -5 -190 -11 -208 -14 l-32 -5 7 -127 c10 -166 10 -1833 0 -1979 l-7 -113 386 0 c424 0 534 10 709 67 159 51 316 150 404 256 20 23 38 44 41 47 30 29 98 146 144 250 9 19 28 85 42 145 37 150 39 375 5 537 -53 255 -163 462 -335 633 -101 99 -109 106 -181 152 -172 108 -403 164 -665 161 -74 -1 -214 -5 -310 -10z m547 -243 c124 -28 157 -39 232 -77 445 -229 576 -950 248 -1363 -118 -149 -247 -229 -452 -282 -80 -21 -132 -27 -262 -30 -90 -3 -187 -2 -216 1 l-53 7 3 287 c4 433 23 1361 29 1408 5 39 6 41 52 51 76 17 340 15 419 -2z"/>
 <path d="M6534 3358 c10 -33 20 -1787 11 -1882 l-7 -79 -271 7 c-150 3 -309 9 -354 13 l-82 6 5 -94 c3 -52 7 -109 10 -126 l5 -33 845 0 845 0 -3 123 c-2 76 -7 121 -13 120 -6 -1 -163 -5 -349 -9 l-339 -7 5 991 5 992 -160 0 -159 0 6 -22z"/>
 <path d="M7520 3369 c0 -22 117 -330 166 -436 7 -17 14 -34 14 -37 0 -3 14 -35 30 -71 17 -36 30 -68 30 -71 0 -3 6 -20 14 -37 8 -18 42 -97 76 -177 58 -137 130 -303 171 -397 11 -23 19 -44 19 -47 0 -3 14 -35 30 -71 17 -36 30 -69 30 -73 1 -4 9 -25 20 -47 11 -22 19 -43 20 -48 0 -4 9 -26 19 -50 11 -23 38 -89 61 -147 23 -58 45 -114 50 -125 35 -77 120 -321 120 -345 0 -19 7 -20 205 -20 164 0 205 3 205 13 0 16 58 194 93 287 48 126 118 305 127 325 5 11 19 44 30 73 49 127 62 160 81 199 10 24 19 46 19 50 1 5 9 26 20 48 11 22 19 43 20 48 0 4 9 26 19 50 25 52 181 436 181 443 0 2 9 23 19 47 23 50 91 224 91 233 0 3 7 20 15 37 25 55 115 317 115 338 0 18 -8 19 -183 19 l-182 0 -13 -67 c-17 -94 -149 -512 -188 -601 l-15 -32 -486 2 -487 3 -65 195 c-79 233 -105 319 -128 423 l-18 77 -172 0 c-117 0 -173 -3 -173 -11z m1440 -939 c0 -11 -61 -170 -85 -225 -64 -140 -295 -765 -295 -796 0 -40 -16 -15 -42 65 -15 46 -41 121 -59 167 -29 75 -302 755 -316 787 -4 9 79 12 396 12 266 0 401 -3 401 -10z"/>
 <path d="M9963 3328 c4 -28 12 -293 18 -589 10 -424 10 -638 0 -1006 -7 -257 -15 -489 -18 -516 l-6 -47 169 0 169 0 14 31 c13 30 246 382 354 534 406 575 617 900 714 1100 l44 90 -7 -185 c-3 -102 -8 -192 -11 -200 -2 -8 -8 -296 -13 -640 -5 -344 -12 -649 -16 -678 l-7 -52 152 0 151 0 0 43 c0 23 -7 209 -15 412 -17 430 -19 743 -6 1080 6 132 13 338 16 458 l7 217 -123 -1 -124 0 -90 -136 c-49 -75 -137 -203 -195 -285 -58 -81 -152 -216 -210 -298 -58 -83 -111 -158 -118 -168 -36 -51 -122 -175 -157 -227 -22 -33 -43 -62 -46 -65 -5 -4 -98 -145 -214 -325 -55 -85 -121 -199 -156 -271 -30 -61 -34 -66 -37 -41 -2 15 2 67 8 115 6 48 15 359 20 692 5 333 12 696 16 808 l7 202 -148 0 -148 0 6 -52z"/>
 </g>
<g id="layer103" fill="#c7f805" stroke="none">
 <path d="M830 4941 l0 -79 68 -27 c37 -15 76 -31 86 -37 20 -11 36 -17 271 -98 224 -78 388 -124 630 -176 183 -40 202 -43 320 -60 278 -40 341 -45 718 -50 l387 -6 0 -1785 0 -1785 28 6 c15 2 66 8 115 11 l87 7 0 1968 0 1968 -36 23 -36 22 -232 -23 c-367 -35 -530 -42 -861 -37 -300 6 -664 36 -805 67 -25 5 -92 19 -150 30 -150 28 -292 59 -315 70 -11 5 -36 12 -55 16 -19 3 -66 17 -105 30 -38 13 -80 24 -92 24 -22 0 -23 -4 -23 -79z"/>
 <path d="M4550 3433 c-79 -6 -182 -23 -273 -45 -81 -19 -88 -23 -83 -42 4 -11 18 -72 31 -135 14 -63 28 -117 30 -119 3 -3 24 2 47 11 70 26 237 65 328 76 251 32 514 -7 631 -93 120 -88 143 -253 54 -392 -63 -98 -125 -136 -625 -378 -58 -27 -116 -58 -130 -67 -116 -75 -149 -101 -196 -152 -166 -179 -188 -474 -50 -686 81 -126 249 -227 430 -260 74 -14 472 -14 586 -1 47 5 106 15 133 22 41 10 47 15 47 38 0 23 -23 179 -35 236 -4 20 -5 20 -113 -7 -145 -37 -247 -49 -424 -49 -162 0 -229 10 -301 47 -65 32 -102 70 -127 127 -47 110 -11 241 88 325 43 35 280 157 392 201 76 30 269 131 340 179 183 122 272 250 306 439 18 102 12 189 -22 310 -64 229 -286 374 -626 411 -90 10 -331 12 -438 4z"/>
 <path d="M14745 3433 c-71 -6 -199 -24 -235 -34 -19 -5 -55 -14 -79 -20 l-44 -10 7 -47 c6 -46 47 -223 52 -231 2 -2 23 3 46 12 194 72 478 104 685 77 234 -32 364 -126 379 -278 8 -77 -7 -139 -51 -208 -62 -97 -144 -147 -605 -368 -94 -45 -198 -104 -218 -123 -7 -7 -17 -13 -22 -13 -20 0 -132 -116 -164 -168 -57 -95 -80 -181 -80 -302 1 -87 5 -118 28 -182 59 -170 180 -287 366 -353 105 -38 171 -45 404 -45 224 0 351 9 439 32 l49 12 -7 74 c-4 40 -11 88 -16 105 -5 18 -9 44 -9 60 0 15 -6 30 -13 33 -8 3 -60 -6 -116 -20 -56 -14 -139 -30 -184 -36 -104 -13 -368 -13 -427 1 -110 24 -206 94 -232 168 -21 60 -15 169 11 220 41 80 99 124 274 209 89 43 178 85 197 92 74 29 268 131 340 179 183 122 272 250 306 439 18 102 12 189 -22 310 -64 229 -286 374 -626 411 -89 10 -336 12 -433 4z"/>
 <path d="M12540 3398 c-96 -5 -190 -11 -208 -14 l-32 -5 7 -127 c10 -166 10 -1833 0 -1979 l-7 -113 386 0 c424 0 534 10 709 67 159 51 316 150 404 256 20 23 38 44 41 47 30 29 98 146 144 250 9 19 28 85 42 145 37 150 39 375 5 537 -53 255 -163 462 -335 633 -101 99 -109 106 -181 152 -172 108 -403 164 -665 161 -74 -1 -214 -5 -310 -10z m547 -243 c124 -28 157 -39 232 -77 445 -229 576 -950 248 -1363 -118 -149 -247 -229 -452 -282 -80 -21 -132 -27 -262 -30 -90 -3 -187 -2 -216 1 l-53 7 3 287 c4 433 23 1361 29 1408 5 39 6 41 52 51 76 17 340 15 419 -2z"/>
 <path d="M6534 3358 c10 -33 20 -1787 11 -1882 l-7 -79 -271 7 c-150 3 -309 9 -354 13 l-82 6 5 -94 c3 -52 7 -109 10 -126 l5 -33 845 0 845 0 -3 123 c-2 76 -7 121 -13 120 -6 -1 -163 -5 -349 -9 l-339 -7 5 991 5 992 -160 0 -159 0 6 -22z"/>
 <path d="M7520 3369 c0 -22 117 -330 166 -436 7 -17 14 -34 14 -37 0 -3 14 -35 30 -71 17 -36 30 -68 30 -71 0 -3 6 -20 14 -37 8 -18 42 -97 76 -177 58 -137 130 -303 171 -397 11 -23 19 -44 19 -47 0 -3 14 -35 30 -71 17 -36 30 -69 30 -73 1 -4 9 -25 20 -47 11 -22 19 -43 20 -48 0 -4 9 -26 19 -50 11 -23 38 -89 61 -147 23 -58 45 -114 50 -125 35 -77 120 -321 120 -345 0 -19 7 -20 205 -20 164 0 205 3 205 13 0 16 58 194 93 287 48 126 118 305 127 325 5 11 19 44 30 73 49 127 62 160 81 199 10 24 19 46 19 50 1 5 9 26 20 48 11 22 19 43 20 48 0 4 9 26 19 50 25 52 181 436 181 443 0 2 9 23 19 47 23 50 91 224 91 233 0 3 7 20 15 37 25 55 115 317 115 338 0 18 -8 19 -183 19 l-182 0 -13 -67 c-17 -94 -149 -512 -188 -601 l-15 -32 -486 2 -487 3 -65 195 c-79 233 -105 319 -128 423 l-18 77 -172 0 c-117 0 -173 -3 -173 -11z m1440 -939 c0 -11 -61 -170 -85 -225 -64 -140 -295 -765 -295 -796 0 -40 -16 -15 -42 65 -15 46 -41 121 -59 167 -29 75 -302 755 -316 787 -4 9 79 12 396 12 266 0 401 -3 401 -10z"/>
 <path d="M9963 3328 c4 -28 12 -293 18 -589 10 -424 10 -638 0 -1006 -7 -257 -15 -489 -18 -516 l-6 -47 169 0 169 0 14 31 c13 30 246 382 354 534 406 575 617 900 714 1100 l44 90 -7 -185 c-3 -102 -8 -192 -11 -200 -2 -8 -8 -296 -13 -640 -5 -344 -12 -649 -16 -678 l-7 -52 152 0 151 0 0 43 c0 23 -7 209 -15 412 -17 430 -19 743 -6 1080 6 132 13 338 16 458 l7 217 -123 -1 -124 0 -90 -136 c-49 -75 -137 -203 -195 -285 -58 -81 -152 -216 -210 -298 -58 -83 -111 -158 -118 -168 -36 -51 -122 -175 -157 -227 -22 -33 -43 -62 -46 -65 -5 -4 -98 -145 -214 -325 -55 -85 -121 -199 -156 -271 -30 -61 -34 -66 -37 -41 -2 15 2 67 8 115 6 48 15 359 20 692 5 333 12 696 16 808 l7 202 -148 0 -148 0 6 -52z"/>
 </g>
<g id="layer104" fill="#fefefe" stroke="none">
 <path d="M4550 3433 c-79 -6 -182 -23 -273 -45 -81 -19 -88 -23 -83 -42 4 -11 18 -72 31 -135 14 -63 28 -117 30 -119 3 -3 24 2 47 11 70 26 237 65 328 76 251 32 514 -7 631 -93 120 -88 143 -253 54 -392 -63 -98 -125 -136 -625 -378 -58 -27 -116 -58 -130 -67 -116 -75 -149 -101 -196 -152 -166 -179 -188 -474 -50 -686 81 -126 249 -227 430 -260 74 -14 472 -14 586 -1 47 5 106 15 133 22 41 10 47 15 47 38 0 23 -23 179 -35 236 -4 20 -5 20 -113 -7 -145 -37 -247 -49 -424 -49 -162 0 -229 10 -301 47 -65 32 -102 70 -127 127 -47 110 -11 241 88 325 43 35 280 157 392 201 76 30 269 131 340 179 183 122 272 250 306 439 18 102 12 189 -22 310 -64 229 -286 374 -626 411 -90 10 -331 12 -438 4z"/>
 <path d="M14745 3433 c-71 -6 -199 -24 -235 -34 -19 -5 -55 -14 -79 -20 l-44 -10 7 -47 c6 -46 47 -223 52 -231 2 -2 23 3 46 12 194 72 478 104 685 77 234 -32 364 -126 379 -278 8 -77 -7 -139 -51 -208 -62 -97 -144 -147 -605 -368 -94 -45 -198 -104 -218 -123 -7 -7 -17 -13 -22 -13 -20 0 -132 -116 -164 -168 -57 -95 -80 -181 -80 -302 1 -87 5 -118 28 -182 59 -170 180 -287 366 -353 105 -38 171 -45 404 -45 224 0 351 9 439 32 l49 12 -7 74 c-4 40 -11 88 -16 105 -5 18 -9 44 -9 60 0 15 -6 30 -13 33 -8 3 -60 -6 -116 -20 -56 -14 -139 -30 -184 -36 -104 -13 -368 -13 -427 1 -110 24 -206 94 -232 168 -21 60 -15 169 11 220 41 80 99 124 274 209 89 43 178 85 197 92 74 29 268 131 340 179 183 122 272 250 306 439 18 102 12 189 -22 310 -64 229 -286 374 -626 411 -89 10 -336 12 -433 4z"/>
 <path d="M12540 3398 c-96 -5 -190 -11 -208 -14 l-32 -5 7 -127 c10 -166 10 -1833 0 -1979 l-7 -113 386 0 c424 0 534 10 709 67 159 51 316 150 404 256 20 23 38 44 41 47 30 29 98 146 144 250 9 19 28 85 42 145 37 150 39 375 5 537 -53 255 -163 462 -335 633 -101 99 -109 106 -181 152 -172 108 -403 164 -665 161 -74 -1 -214 -5 -310 -10z m547 -243 c124 -28 157 -39 232 -77 445 -229 576 -950 248 -1363 -118 -149 -247 -229 -452 -282 -80 -21 -132 -27 -262 -30 -90 -3 -187 -2 -216 1 l-53 7 3 287 c4 433 23 1361 29 1408 5 39 6 41 52 51 76 17 340 15 419 -2z"/>
 <path d="M6534 3358 c10 -33 20 -1787 11 -1882 l-7 -79 -271 7 c-150 3 -309 9 -354 13 l-82 6 5 -94 c3 -52 7 -109 10 -126 l5 -33 845 0 845 0 -3 123 c-2 76 -7 121 -13 120 -6 -1 -163 -5 -349 -9 l-339 -7 5 991 5 992 -160 0 -159 0 6 -22z"/>
 <path d="M7520 3369 c0 -22 117 -330 166 -436 7 -17 14 -34 14 -37 0 -3 14 -35 30 -71 17 -36 30 -68 30 -71 0 -3 6 -20 14 -37 8 -18 42 -97 76 -177 58 -137 130 -303 171 -397 11 -23 19 -44 19 -47 0 -3 14 -35 30 -71 17 -36 30 -69 30 -73 1 -4 9 -25 20 -47 11 -22 19 -43 20 -48 0 -4 9 -26 19 -50 11 -23 38 -89 61 -147 23 -58 45 -114 50 -125 35 -77 120 -321 120 -345 0 -19 7 -20 205 -20 164 0 205 3 205 13 0 16 58 194 93 287 48 126 118 305 127 325 5 11 19 44 30 73 49 127 62 160 81 199 10 24 19 46 19 50 1 5 9 26 20 48 11 22 19 43 20 48 0 4 9 26 19 50 25 52 181 436 181 443 0 2 9 23 19 47 23 50 91 224 91 233 0 3 7 20 15 37 25 55 115 317 115 338 0 18 -8 19 -183 19 l-182 0 -13 -67 c-17 -94 -149 -512 -188 -601 l-15 -32 -486 2 -487 3 -65 195 c-79 233 -105 319 -128 423 l-18 77 -172 0 c-117 0 -173 -3 -173 -11z m1440 -939 c0 -11 -61 -170 -85 -225 -64 -140 -295 -765 -295 -796 0 -40 -16 -15 -42 65 -15 46 -41 121 -59 167 -29 75 -302 755 -316 787 -4 9 79 12 396 12 266 0 401 -3 401 -10z"/>
 <path d="M9963 3328 c4 -28 12 -293 18 -589 10 -424 10 -638 0 -1006 -7 -257 -15 -489 -18 -516 l-6 -47 169 0 169 0 14 31 c13 30 246 382 354 534 406 575 617 900 714 1100 l44 90 -7 -185 c-3 -102 -8 -192 -11 -200 -2 -8 -8 -296 -13 -640 -5 -344 -12 -649 -16 -678 l-7 -52 152 0 151 0 0 43 c0 23 -7 209 -15 412 -17 430 -19 743 -6 1080 6 132 13 338 16 458 l7 217 -123 -1 -124 0 -90 -136 c-49 -75 -137 -203 -195 -285 -58 -81 -152 -216 -210 -298 -58 -83 -111 -158 -118 -168 -36 -51 -122 -175 -157 -227 -22 -33 -43 -62 -46 -65 -5 -4 -98 -145 -214 -325 -55 -85 -121 -199 -156 -271 -30 -61 -34 -66 -37 -41 -2 15 2 67 8 115 6 48 15 359 20 692 5 333 12 696 16 808 l7 202 -148 0 -148 0 6 -52z"/>
 </g>

</svg>