<!DOCTYPE svg PUBLIC "-//W3C//DTD SVG 20010904//EN" "http://www.w3.org/TR/2001/REC-SVG-20010904/DTD/svg10.dtd">
<svg version="1.0" xmlns="http://www.w3.org/2000/svg" width="1600px" height="502px" viewBox="0 0 16000 5020" preserveAspectRatio="xMidYMid meet">
<g id="layer101" fill="#f00540" stroke="none">
 <path d="M830 4941 l0 -79 68 -27 c37 -15 76 -31 86 -37 20 -11 36 -17 271 -98 224 -78 388 -124 630 -176 183 -40 202 -43 320 -60 278 -40 341 -45 718 -50 l387 -6 0 -1785 0 -1785 28 6 c15 2 66 8 115 11 l87 7 0 1968 0 1968 -36 23 -36 22 -232 -23 c-367 -35 -530 -42 -861 -37 -300 6 -664 36 -805 67 -25 5 -92 19 -150 30 -150 28 -292 59 -315 70 -11 5 -36 12 -55 16 -19 3 -66 17 -105 30 -38 13 -80 24 -92 24 -22 0 -23 -4 -23 -79z"/>
 <path d="M832 4695 l3 -47 110 -58 c96 -51 213 -107 400 -191 74 -33 284 -115 330 -128 22 -7 49 -16 60 -21 11 -5 45 -16 75 -25 30 -9 64 -20 75 -25 20 -9 94 -29 290 -77 55 -14 150 -33 210 -44 61 -10 130 -23 155 -29 55 -12 322 -40 385 -40 l45 0 0 -1790 0 -1790 120 0 120 0 0 1935 0 1935 -212 0 c-205 0 -552 20 -688 40 -374 53 -713 131 -1005 229 -212 71 -298 103 -381 141 -23 11 -54 22 -68 26 -27 6 -27 6 -24 -41z"/>
 <path d="M780 2609 l0 -1950 33 -15 c17 -8 59 -30 92 -47 33 -18 83 -45 110 -59 76 -40 302 -148 312 -148 4 -1 26 -9 48 -20 22 -11 43 -19 47 -20 4 0 31 -11 60 -24 29 -13 73 -30 98 -37 25 -7 50 -16 55 -19 6 -4 35 -15 65 -24 30 -10 64 -22 75 -26 19 -9 73 -25 260 -77 128 -35 291 -70 430 -93 66 -11 145 -24 175 -29 30 -6 94 -13 143 -17 l87 -7 0 1956 0 1955 -82 7 c-232 19 -548 76 -778 141 -156 43 -405 123 -465 149 -16 7 -68 28 -115 46 -47 17 -107 42 -135 55 -27 12 -72 32 -100 44 -54 24 -238 115 -347 173 l-68 36 0 -1950z"/>
 <path d="M4620 3510 c-152 -15 -433 -50 -438 -54 -6 -7 8 -170 16 -183 5 -8 75 -4 237 13 127 13 311 27 410 30 164 6 188 5 265 -15 163 -41 253 -110 312 -240 78 -171 50 -455 -53 -547 -33 -29 -106 -69 -154 -84 -22 -7 -44 -16 -50 -20 -11 -8 -145 -39 -325 -75 -286 -57 -435 -119 -541 -226 -91 -90 -127 -192 -136 -381 -11 -237 32 -384 147 -498 73 -73 144 -117 240 -148 126 -40 187 -47 415 -45 206 1 331 10 590 46 102 14 92 -3 79 135 -8 82 0 78 -119 62 -294 -41 -652 -55 -775 -31 -74 14 -192 68 -232 105 -85 81 -117 165 -118 309 0 111 32 231 74 279 29 33 93 73 148 94 24 9 52 20 63 25 31 13 169 49 290 74 144 31 275 63 300 74 11 5 36 15 55 21 262 94 364 236 377 525 6 131 -23 316 -62 402 -14 29 -25 56 -25 59 0 3 -18 29 -40 59 -76 103 -186 171 -348 216 -65 18 -110 22 -297 24 -121 2 -258 -1 -305 -5z"/>
 <path d="M14795 3510 c-174 -18 -428 -50 -433 -54 -6 -7 8 -170 16 -183 5 -8 77 -3 242 14 157 17 302 25 435 26 193 2 203 1 285 -25 143 -46 234 -136 281 -276 30 -88 32 -280 5 -357 -41 -117 -108 -184 -225 -222 -25 -9 -50 -19 -56 -23 -5 -5 -57 -18 -115 -30 -58 -12 -154 -32 -215 -45 -245 -51 -343 -86 -458 -162 -148 -98 -203 -213 -214 -445 -11 -237 32 -384 147 -498 206 -207 500 -242 1239 -149 l93 12 -7 96 c-4 53 -9 98 -11 100 -1 2 -45 -2 -96 -8 -347 -44 -662 -57 -788 -32 -74 14 -192 68 -232 105 -86 82 -118 165 -118 310 0 82 5 115 25 176 14 41 36 87 49 102 29 33 93 73 148 94 24 9 52 20 63 25 29 13 164 48 290 75 170 36 233 52 329 86 231 81 339 183 381 360 19 81 19 326 0 432 -14 78 -58 199 -82 224 -7 7 -13 17 -13 22 0 12 -89 102 -130 131 -54 39 -140 76 -232 100 -72 19 -113 23 -303 25 -121 1 -256 -2 -300 -6z"/>
 <path d="M6670 2385 l0 -1105 -380 0 -380 0 0 -105 0 -105 870 0 870 0 0 105 0 105 -375 0 -375 0 0 1105 0 1105 -115 0 -115 0 0 -1105z"/>
 <path d="M7611 3458 c24 -81 77 -266 143 -498 15 -52 38 -133 52 -180 14 -47 33 -114 43 -150 10 -36 44 -153 76 -260 32 -107 65 -224 75 -260 28 -103 121 -424 155 -540 9 -30 28 -93 41 -140 13 -47 35 -125 49 -175 15 -49 32 -110 39 -135 l12 -45 256 -3 256 -2 16 42 c8 24 23 70 31 103 20 75 57 204 89 315 23 80 49 169 101 355 13 44 39 134 58 200 19 66 42 145 50 175 21 77 108 382 161 560 13 47 31 110 39 140 15 55 81 287 117 410 11 36 22 77 26 93 l6 27 -111 0 -110 0 -22 -72 c-11 -40 -29 -100 -39 -133 -10 -33 -33 -109 -50 -170 -17 -60 -43 -149 -58 -198 l-26 -87 -535 2 -535 3 -17 65 c-9 36 -29 106 -44 155 -14 50 -37 128 -50 175 -13 47 -35 123 -48 170 l-24 85 -116 3 -116 3 10 -33z m1414 -850 c-3 -13 -17 -61 -30 -108 -13 -47 -36 -125 -50 -175 -15 -49 -37 -128 -50 -175 -13 -47 -31 -110 -40 -140 -32 -107 -113 -389 -161 -560 -13 -47 -30 -105 -37 -130 l-14 -45 -90 -3 -90 -3 -12 48 c-6 26 -22 84 -35 128 -47 156 -138 475 -163 565 -8 30 -31 109 -50 175 -19 66 -42 145 -50 175 -8 30 -28 99 -44 154 -16 54 -29 103 -29 107 0 5 213 9 476 9 l476 0 -7 -22z"/>
 <path d="M9880 2280 l0 -1210 218 0 218 0 39 87 c21 49 59 131 83 183 55 118 64 139 150 330 38 85 86 191 107 235 66 143 73 159 118 260 25 55 61 136 82 180 62 134 71 155 143 315 39 85 87 191 107 235 55 120 78 170 130 288 47 105 49 107 82 107 l33 0 0 -1110 0 -1110 115 0 115 0 0 1210 0 1210 -215 0 -216 0 -43 -92 c-24 -51 -75 -163 -114 -248 -38 -85 -87 -191 -107 -235 -20 -44 -45 -98 -55 -120 -10 -22 -34 -74 -53 -115 -19 -41 -49 -106 -67 -145 -53 -117 -67 -146 -110 -240 -23 -49 -70 -153 -105 -230 -35 -77 -82 -180 -105 -230 -23 -49 -50 -108 -60 -130 -29 -63 -80 -173 -115 -250 -18 -38 -43 -94 -56 -122 -22 -48 -27 -53 -56 -53 l-33 0 0 1105 0 1105 -115 0 -115 0 0 -1210z"/>
 <path d="M12220 2280 l0 -1212 523 5 c556 5 576 6 704 57 286 114 440 369 503 830 12 84 12 504 0 595 -26 209 -63 358 -120 490 -45 102 -153 242 -236 306 -44 34 -151 88 -219 110 -69 23 -76 24 -612 27 l-543 3 0 -1211z m1022 999 c152 -33 276 -137 358 -304 83 -168 117 -337 127 -630 10 -294 -29 -574 -101 -722 -15 -29 -26 -55 -26 -57 0 -3 -13 -25 -30 -49 -41 -62 -142 -152 -202 -183 -95 -48 -152 -54 -555 -54 l-373 0 0 1005 0 1005 375 0 c239 0 393 -4 427 -11z"/>
 </g>
<g id="layer102" fill="#cb04b2" stroke="none">
 <path d="M830 4941 l0 -79 68 -27 c37 -15 76 -31 86 -37 20 -11 36 -17 271 -98 224 -78 388 -124 630 -176 183 -40 202 -43 320 -60 278 -40 341 -45 718 -50 l387 -6 0 -1785 0 -1785 28 6 c15 2 66 8 115 11 l87 7 0 1968 0 1968 -36 23 -36 22 -232 -23 c-367 -35 -530 -42 -861 -37 -300 6 -664 36 -805 67 -25 5 -92 19 -150 30 -150 28 -292 59 -315 70 -11 5 -36 12 -55 16 -19 3 -66 17 -105 30 -38 13 -80 24 -92 24 -22 0 -23 -4 -23 -79z"/>
 <path d="M780 2609 l0 -1950 33 -15 c17 -8 59 -30 92 -47 127 -69 164 -87 287 -146 69 -34 130 -61 135 -61 4 0 19 -6 33 -13 14 -7 48 -21 75 -31 28 -10 55 -22 60 -26 6 -4 37 -15 70 -25 33 -10 65 -21 70 -25 6 -4 35 -15 65 -24 30 -10 64 -22 75 -26 19 -9 73 -25 260 -77 128 -35 291 -70 430 -93 66 -11 145 -24 175 -29 30 -6 94 -13 143 -17 l87 -7 0 1956 0 1955 -82 7 c-247 20 -556 79 -843 159 -103 28 -355 111 -400 131 -16 7 -68 28 -115 46 -47 17 -107 42 -135 55 -27 12 -72 32 -100 44 -54 24 -238 115 -347 173 l-68 36 0 -1950z"/>
 <path d="M4620 3510 c-152 -15 -433 -50 -438 -54 -6 -7 8 -170 16 -183 5 -8 75 -4 237 13 127 13 311 27 410 30 164 6 188 5 265 -15 163 -41 253 -110 312 -240 78 -171 50 -455 -53 -547 -33 -29 -106 -69 -154 -84 -22 -7 -44 -16 -50 -20 -11 -8 -145 -39 -325 -75 -286 -57 -435 -119 -541 -226 -91 -90 -127 -192 -136 -381 -11 -237 32 -384 147 -498 73 -73 144 -117 240 -148 126 -40 187 -47 415 -45 206 1 331 10 590 46 102 14 92 -3 79 135 -8 82 0 78 -119 62 -294 -41 -652 -55 -775 -31 -74 14 -192 68 -232 105 -85 81 -117 165 -118 309 0 111 32 231 74 279 29 33 93 73 148 94 24 9 52 20 63 25 31 13 169 49 290 74 144 31 275 63 300 74 11 5 36 15 55 21 262 94 364 236 377 525 6 131 -23 316 -62 402 -14 29 -25 56 -25 59 0 3 -18 29 -40 59 -76 103 -186 171 -348 216 -65 18 -110 22 -297 24 -121 2 -258 -1 -305 -5z"/>
 <path d="M14795 3510 c-174 -18 -428 -50 -433 -54 -6 -7 8 -170 16 -183 5 -8 77 -3 242 14 157 17 302 25 435 26 193 2 203 1 285 -25 143 -46 234 -136 281 -276 30 -88 32 -280 5 -357 -41 -117 -108 -184 -225 -222 -25 -9 -50 -19 -56 -23 -5 -5 -57 -18 -115 -30 -58 -12 -154 -32 -215 -45 -245 -51 -343 -86 -458 -162 -148 -98 -203 -213 -214 -445 -11 -237 32 -384 147 -498 206 -207 500 -242 1239 -149 l93 12 -7 96 c-4 53 -9 98 -11 100 -1 2 -45 -2 -96 -8 -347 -44 -662 -57 -788 -32 -74 14 -192 68 -232 105 -86 82 -118 165 -118 310 0 82 5 115 25 176 14 41 36 87 49 102 29 33 93 73 148 94 24 9 52 20 63 25 29 13 164 48 290 75 170 36 233 52 329 86 231 81 339 183 381 360 19 81 19 326 0 432 -14 78 -58 199 -82 224 -7 7 -13 17 -13 22 0 12 -89 102 -130 131 -54 39 -140 76 -232 100 -72 19 -113 23 -303 25 -121 1 -256 -2 -300 -6z"/>
 <path d="M6670 2385 l0 -1105 -380 0 -380 0 0 -105 0 -105 870 0 870 0 0 105 0 105 -375 0 -375 0 0 1105 0 1105 -115 0 -115 0 0 -1105z"/>
 <path d="M7611 3458 c24 -81 77 -266 143 -498 15 -52 38 -133 52 -180 14 -47 33 -114 43 -150 10 -36 44 -153 76 -260 32 -107 65 -224 75 -260 28 -103 121 -424 155 -540 9 -30 28 -93 41 -140 13 -47 35 -125 49 -175 15 -49 32 -110 39 -135 l12 -45 256 -3 256 -2 16 42 c8 24 23 70 31 103 20 75 57 204 89 315 23 80 49 169 101 355 13 44 39 134 58 200 19 66 42 145 50 175 21 77 108 382 161 560 13 47 31 110 39 140 15 55 81 287 117 410 11 36 22 77 26 93 l6 27 -111 0 -110 0 -22 -72 c-11 -40 -29 -100 -39 -133 -10 -33 -33 -109 -50 -170 -17 -60 -43 -149 -58 -198 l-26 -87 -535 2 -535 3 -17 65 c-9 36 -29 106 -44 155 -14 50 -37 128 -50 175 -13 47 -35 123 -48 170 l-24 85 -116 3 -116 3 10 -33z m1414 -850 c-3 -13 -17 -61 -30 -108 -13 -47 -36 -125 -50 -175 -15 -49 -37 -128 -50 -175 -13 -47 -31 -110 -40 -140 -32 -107 -113 -389 -161 -560 -13 -47 -30 -105 -37 -130 l-14 -45 -90 -3 -90 -3 -12 48 c-6 26 -22 84 -35 128 -47 156 -138 475 -163 565 -8 30 -31 109 -50 175 -19 66 -42 145 -50 175 -8 30 -28 99 -44 154 -16 54 -29 103 -29 107 0 5 213 9 476 9 l476 0 -7 -22z"/>
 <path d="M9880 2280 l0 -1210 218 0 218 0 39 87 c21 49 59 131 83 183 55 118 64 139 150 330 38 85 86 191 107 235 66 143 73 159 118 260 25 55 61 136 82 180 62 134 71 155 143 315 39 85 87 191 107 235 55 120 78 170 130 288 47 105 49 107 82 107 l33 0 0 -1110 0 -1110 115 0 115 0 0 1210 0 1210 -215 0 -216 0 -43 -92 c-24 -51 -75 -163 -114 -248 -38 -85 -87 -191 -107 -235 -20 -44 -45 -98 -55 -120 -10 -22 -34 -74 -53 -115 -19 -41 -49 -106 -67 -145 -53 -117 -67 -146 -110 -240 -23 -49 -70 -153 -105 -230 -35 -77 -82 -180 -105 -230 -23 -49 -50 -108 -60 -130 -29 -63 -80 -173 -115 -250 -18 -38 -43 -94 -56 -122 -22 -48 -27 -53 -56 -53 l-33 0 0 1105 0 1105 -115 0 -115 0 0 -1210z"/>
 <path d="M12220 2280 l0 -1212 523 5 c556 5 576 6 704 57 286 114 440 369 503 830 12 84 12 504 0 595 -26 209 -63 358 -120 490 -45 102 -153 242 -236 306 -44 34 -151 88 -219 110 -69 23 -76 24 -612 27 l-543 3 0 -1211z m1022 999 c152 -33 276 -137 358 -304 83 -168 117 -337 127 -630 10 -294 -29 -574 -101 -722 -15 -29 -26 -55 -26 -57 0 -3 -13 -25 -30 -49 -41 -62 -142 -152 -202 -183 -95 -48 -152 -54 -555 -54 l-373 0 0 1005 0 1005 375 0 c239 0 393 -4 427 -11z"/>
 </g>
<g id="layer103" fill="#c7f805" stroke="none">
 <path d="M830 4941 l0 -79 68 -27 c37 -15 76 -31 86 -37 20 -11 36 -17 271 -98 224 -78 388 -124 630 -176 183 -40 202 -43 320 -60 278 -40 341 -45 718 -50 l387 -6 0 -1785 0 -1785 28 6 c15 2 66 8 115 11 l87 7 0 1968 0 1968 -36 23 -36 22 -232 -23 c-367 -35 -530 -42 -861 -37 -300 6 -664 36 -805 67 -25 5 -92 19 -150 30 -150 28 -292 59 -315 70 -11 5 -36 12 -55 16 -19 3 -66 17 -105 30 -38 13 -80 24 -92 24 -22 0 -23 -4 -23 -79z"/>
 <path d="M4620 3510 c-152 -15 -433 -50 -438 -54 -6 -7 8 -170 16 -183 5 -8 75 -4 237 13 127 13 311 27 410 30 164 6 188 5 265 -15 163 -41 253 -110 312 -240 78 -171 50 -455 -53 -547 -33 -29 -106 -69 -154 -84 -22 -7 -44 -16 -50 -20 -11 -8 -145 -39 -325 -75 -286 -57 -435 -119 -541 -226 -91 -90 -127 -192 -136 -381 -11 -237 32 -384 147 -498 73 -73 144 -117 240 -148 126 -40 187 -47 415 -45 206 1 331 10 590 46 102 14 92 -3 79 135 -8 82 0 78 -119 62 -294 -41 -652 -55 -775 -31 -74 14 -192 68 -232 105 -85 81 -117 165 -118 309 0 111 32 231 74 279 29 33 93 73 148 94 24 9 52 20 63 25 31 13 169 49 290 74 144 31 275 63 300 74 11 5 36 15 55 21 262 94 364 236 377 525 6 131 -23 316 -62 402 -14 29 -25 56 -25 59 0 3 -18 29 -40 59 -76 103 -186 171 -348 216 -65 18 -110 22 -297 24 -121 2 -258 -1 -305 -5z"/>
 <path d="M14795 3510 c-174 -18 -428 -50 -433 -54 -6 -7 8 -170 16 -183 5 -8 77 -3 242 14 157 17 302 25 435 26 193 2 203 1 285 -25 143 -46 234 -136 281 -276 30 -88 32 -280 5 -357 -41 -117 -108 -184 -225 -222 -25 -9 -50 -19 -56 -23 -5 -5 -57 -18 -115 -30 -58 -12 -154 -32 -215 -45 -245 -51 -343 -86 -458 -162 -148 -98 -203 -213 -214 -445 -11 -237 32 -384 147 -498 206 -207 500 -242 1239 -149 l93 12 -7 96 c-4 53 -9 98 -11 100 -1 2 -45 -2 -96 -8 -347 -44 -662 -57 -788 -32 -74 14 -192 68 -232 105 -86 82 -118 165 -118 310 0 82 5 115 25 176 14 41 36 87 49 102 29 33 93 73 148 94 24 9 52 20 63 25 29 13 164 48 290 75 170 36 233 52 329 86 231 81 339 183 381 360 19 81 19 326 0 432 -14 78 -58 199 -82 224 -7 7 -13 17 -13 22 0 12 -89 102 -130 131 -54 39 -140 76 -232 100 -72 19 -113 23 -303 25 -121 1 -256 -2 -300 -6z"/>
 <path d="M6670 2385 l0 -1105 -380 0 -380 0 0 -105 0 -105 870 0 870 0 0 105 0 105 -375 0 -375 0 0 1105 0 1105 -115 0 -115 0 0 -1105z"/>
 <path d="M7611 3458 c24 -81 77 -266 143 -498 15 -52 38 -133 52 -180 14 -47 33 -114 43 -150 10 -36 44 -153 76 -260 32 -107 65 -224 75 -260 28 -103 121 -424 155 -540 9 -30 28 -93 41 -140 13 -47 35 -125 49 -175 15 -49 32 -110 39 -135 l12 -45 256 -3 256 -2 16 42 c8 24 23 70 31 103 20 75 57 204 89 315 23 80 49 169 101 355 13 44 39 134 58 200 19 66 42 145 50 175 21 77 108 382 161 560 13 47 31 110 39 140 15 55 81 287 117 410 11 36 22 77 26 93 l6 27 -111 0 -110 0 -22 -72 c-11 -40 -29 -100 -39 -133 -10 -33 -33 -109 -50 -170 -17 -60 -43 -149 -58 -198 l-26 -87 -535 2 -535 3 -17 65 c-9 36 -29 106 -44 155 -14 50 -37 128 -50 175 -13 47 -35 123 -48 170 l-24 85 -116 3 -116 3 10 -33z m1414 -850 c-3 -13 -17 -61 -30 -108 -13 -47 -36 -125 -50 -175 -15 -49 -37 -128 -50 -175 -13 -47 -31 -110 -40 -140 -32 -107 -113 -389 -161 -560 -13 -47 -30 -105 -37 -130 l-14 -45 -90 -3 -90 -3 -12 48 c-6 26 -22 84 -35 128 -47 156 -138 475 -163 565 -8 30 -31 109 -50 175 -19 66 -42 145 -50 175 -8 30 -28 99 -44 154 -16 54 -29 103 -29 107 0 5 213 9 476 9 l476 0 -7 -22z"/>
 <path d="M9880 2280 l0 -1210 218 0 218 0 39 87 c21 49 59 131 83 183 55 118 64 139 150 330 38 85 86 191 107 235 66 143 73 159 118 260 25 55 61 136 82 180 62 134 71 155 143 315 39 85 87 191 107 235 55 120 78 170 130 288 47 105 49 107 82 107 l33 0 0 -1110 0 -1110 115 0 115 0 0 1210 0 1210 -215 0 -216 0 -43 -92 c-24 -51 -75 -163 -114 -248 -38 -85 -87 -191 -107 -235 -20 -44 -45 -98 -55 -120 -10 -22 -34 -74 -53 -115 -19 -41 -49 -106 -67 -145 -53 -117 -67 -146 -110 -240 -23 -49 -70 -153 -105 -230 -35 -77 -82 -180 -105 -230 -23 -49 -50 -108 -60 -130 -29 -63 -80 -173 -115 -250 -18 -38 -43 -94 -56 -122 -22 -48 -27 -53 -56 -53 l-33 0 0 1105 0 1105 -115 0 -115 0 0 -1210z"/>
 <path d="M12220 2280 l0 -1212 523 5 c556 5 576 6 704 57 286 114 440 369 503 830 12 84 12 504 0 595 -26 209 -63 358 -120 490 -45 102 -153 242 -236 306 -44 34 -151 88 -219 110 -69 23 -76 24 -612 27 l-543 3 0 -1211z m1022 999 c152 -33 276 -137 358 -304 83 -168 117 -337 127 -630 10 -294 -29 -574 -101 -722 -15 -29 -26 -55 -26 -57 0 -3 -13 -25 -30 -49 -41 -62 -142 -152 -202 -183 -95 -48 -152 -54 -555 -54 l-373 0 0 1005 0 1005 375 0 c239 0 393 -4 427 -11z"/>
 </g>
<g id="layer104" fill="#fefefe" stroke="none">
 <path d="M4620 3510 c-152 -15 -433 -50 -438 -54 -6 -7 8 -170 16 -183 5 -8 75 -4 237 13 127 13 311 27 410 30 164 6 188 5 265 -15 163 -41 253 -110 312 -240 78 -171 50 -455 -53 -547 -33 -29 -106 -69 -154 -84 -22 -7 -44 -16 -50 -20 -11 -8 -145 -39 -325 -75 -286 -57 -435 -119 -541 -226 -91 -90 -127 -192 -136 -381 -11 -237 32 -384 147 -498 73 -73 144 -117 240 -148 126 -40 187 -47 415 -45 206 1 331 10 590 46 102 14 92 -3 79 135 -8 82 0 78 -119 62 -294 -41 -652 -55 -775 -31 -74 14 -192 68 -232 105 -85 81 -117 165 -118 309 0 111 32 231 74 279 29 33 93 73 148 94 24 9 52 20 63 25 31 13 169 49 290 74 144 31 275 63 300 74 11 5 36 15 55 21 262 94 364 236 377 525 6 131 -23 316 -62 402 -14 29 -25 56 -25 59 0 3 -18 29 -40 59 -76 103 -186 171 -348 216 -65 18 -110 22 -297 24 -121 2 -258 -1 -305 -5z"/>
 <path d="M14795 3510 c-174 -18 -428 -50 -433 -54 -6 -7 8 -170 16 -183 5 -8 77 -3 242 14 157 17 302 25 435 26 193 2 203 1 285 -25 143 -46 234 -136 281 -276 30 -88 32 -280 5 -357 -41 -117 -108 -184 -225 -222 -25 -9 -50 -19 -56 -23 -5 -5 -57 -18 -115 -30 -58 -12 -154 -32 -215 -45 -245 -51 -343 -86 -458 -162 -148 -98 -203 -213 -214 -445 -11 -237 32 -384 147 -498 206 -207 500 -242 1239 -149 l93 12 -7 96 c-4 53 -9 98 -11 100 -1 2 -45 -2 -96 -8 -347 -44 -662 -57 -788 -32 -74 14 -192 68 -232 105 -86 82 -118 165 -118 310 0 82 5 115 25 176 14 41 36 87 49 102 29 33 93 73 148 94 24 9 52 20 63 25 29 13 164 48 290 75 170 36 233 52 329 86 231 81 339 183 381 360 19 81 19 326 0 432 -14 78 -58 199 -82 224 -7 7 -13 17 -13 22 0 12 -89 102 -130 131 -54 39 -140 76 -232 100 -72 19 -113 23 -303 25 -121 1 -256 -2 -300 -6z"/>
 <path d="M6670 2385 l0 -1105 -380 0 -380 0 0 -105 0 -105 870 0 870 0 0 105 0 105 -375 0 -375 0 0 1105 0 1105 -115 0 -115 0 0 -1105z"/>
 <path d="M7611 3458 c24 -81 77 -266 143 -498 15 -52 38 -133 52 -180 14 -47 33 -114 43 -150 10 -36 44 -153 76 -260 32 -107 65 -224 75 -260 28 -103 121 -424 155 -540 9 -30 28 -93 41 -140 13 -47 35 -125 49 -175 15 -49 32 -110 39 -135 l12 -45 256 -3 256 -2 16 42 c8 24 23 70 31 103 20 75 57 204 89 315 23 80 49 169 101 355 13 44 39 134 58 200 19 66 42 145 50 175 21 77 108 382 161 560 13 47 31 110 39 140 15 55 81 287 117 410 11 36 22 77 26 93 l6 27 -111 0 -110 0 -22 -72 c-11 -40 -29 -100 -39 -133 -10 -33 -33 -109 -50 -170 -17 -60 -43 -149 -58 -198 l-26 -87 -535 2 -535 3 -17 65 c-9 36 -29 106 -44 155 -14 50 -37 128 -50 175 -13 47 -35 123 -48 170 l-24 85 -116 3 -116 3 10 -33z m1414 -850 c-3 -13 -17 -61 -30 -108 -13 -47 -36 -125 -50 -175 -15 -49 -37 -128 -50 -175 -13 -47 -31 -110 -40 -140 -32 -107 -113 -389 -161 -560 -13 -47 -30 -105 -37 -130 l-14 -45 -90 -3 -90 -3 -12 48 c-6 26 -22 84 -35 128 -47 156 -138 475 -163 565 -8 30 -31 109 -50 175 -19 66 -42 145 -50 175 -8 30 -28 99 -44 154 -16 54 -29 103 -29 107 0 5 213 9 476 9 l476 0 -7 -22z"/>
 <path d="M9880 2280 l0 -1210 218 0 218 0 39 87 c21 49 59 131 83 183 55 118 64 139 150 330 38 85 86 191 107 235 66 143 73 159 118 260 25 55 61 136 82 180 62 134 71 155 143 315 39 85 87 191 107 235 55 120 78 170 130 288 47 105 49 107 82 107 l33 0 0 -1110 0 -1110 115 0 115 0 0 1210 0 1210 -215 0 -216 0 -43 -92 c-24 -51 -75 -163 -114 -248 -38 -85 -87 -191 -107 -235 -20 -44 -45 -98 -55 -120 -10 -22 -34 -74 -53 -115 -19 -41 -49 -106 -67 -145 -53 -117 -67 -146 -110 -240 -23 -49 -70 -153 -105 -230 -35 -77 -82 -180 -105 -230 -23 -49 -50 -108 -60 -130 -29 -63 -80 -173 -115 -250 -18 -38 -43 -94 -56 -122 -22 -48 -27 -53 -56 -53 l-33 0 0 1105 0 1105 -115 0 -115 0 0 -1210z"/>
 <path d="M12220 2280 l0 -1212 523 5 c556 5 576 6 704 57 286 114 440 369 503 830 12 84 12 504 0 595 -26 209 -63 358 -120 490 -45 102 -153 242 -236 306 -44 34 -151 88 -219 110 -69 23 -76 24 -612 27 l-543 3 0 -1211z m1022 999 c152 -33 276 -137 358 -304 83 -168 117 -337 127 -630 10 -294 -29 -574 -101 -722 -15 -29 -26 -55 -26 -57 0 -3 -13 -25 -30 -49 -41 -62 -142 -152 -202 -183 -95 -48 -152 -54 -555 -54 l-373 0 0 1005 0 1005 375 0 c239 0 393 -4 427 -11z"/>
 </g>

</svg>